<svg xmlns="http://www.w3.org/2000/svg" xmlns:xlink="http://www.w3.org/1999/xlink" contentStyleType="text/css" data-diagram-type="CLASS" height="787px" preserveAspectRatio="none" style="width:396px;height:787px;background:#FFFFFF;" version="1.1" viewBox="0 0 396 787" width="396px" zoomAndPan="magnify"><?plantuml 1.2026.5?><defs/><g><!--class User--><g class="entity" data-qualified-name="User" data-source-line="1" id="ent0001"><rect fill="#F1F1F1" height="129.4844" rx="2.5" ry="2.5" style="stroke:#181818;stroke-width:0.5;" width="115.0586" x="142.11" y="7"/><ellipse cx="180.1268" cy="23" fill="#ADD1B2" rx="11" ry="11" style="stroke:#181818;stroke-width:1;"/><path d="M183.0955,28.6406 Q182.5174,28.9375 181.8768,29.0781 Q181.2362,29.2344 180.533,29.2344 Q178.033,29.2344 176.7049,27.5938 Q175.3924,25.9375 175.3924,22.8125 Q175.3924,19.6875 176.7049,18.0313 Q178.033,16.375 180.533,16.375 Q181.2362,16.375 181.8768,16.5313 Q182.533,16.6875 183.0955,16.9844 L183.0955,19.7031 Q182.4705,19.125 181.8768,18.8594 Q181.283,18.5781 180.658,18.5781 Q179.3143,18.5781 178.6268,19.6563 Q177.9393,20.7188 177.9393,22.8125 Q177.9393,24.9063 178.6268,25.9844 Q179.3143,27.0469 180.658,27.0469 Q181.283,27.0469 181.8768,26.7813 Q182.4705,26.5 183.0955,25.9219 L183.0955,28.6406 Z " fill="#000000"/><text fill="#000000" font-family="sans-serif" font-size="14" lengthAdjust="spacing" textLength="31.9102" x="199.2416" y="27.8467">User</text><line style="stroke:#181818;stroke-width:0.5;" x1="143.11" x2="256.1686" y1="39" y2="39"/><g data-visibility-modifier="PUBLIC_FIELD"><ellipse cx="153.11" cy="52.6484" fill="none" rx="3" ry="3" style="stroke:#038048;stroke-width:1;"/></g><text fill="#000000" font-family="sans-serif" font-size="14" lengthAdjust="spacing" textLength="40.1953" x="162.11" y="55.9951">id: int</text><g data-visibility-modifier="PUBLIC_FIELD"><ellipse cx="153.11" cy="68.9453" fill="none" rx="3" ry="3" style="stroke:#038048;stroke-width:1;"/></g><text fill="#000000" font-family="sans-serif" font-size="14" lengthAdjust="spacing" textLength="89.0586" x="162.11" y="72.292">name: string</text><g data-visibility-modifier="PUBLIC_FIELD"><ellipse cx="153.11" cy="85.2422" fill="none" rx="3" ry="3" style="stroke:#038048;stroke-width:1;"/></g><text fill="#000000" font-family="sans-serif" font-size="14" lengthAdjust="spacing" textLength="87.9648" x="162.11" y="88.5889">email: string</text><line style="stroke:#181818;stroke-width:0.5;" x1="143.11" x2="256.1686" y1="95.8906" y2="95.8906"/><g data-visibility-modifier="PUBLIC_METHOD"><ellipse cx="153.11" cy="109.5391" fill="#84BE84" rx="3" ry="3" style="stroke:#038048;stroke-width:1;"/></g><text fill="#000000" font-family="sans-serif" font-size="14" lengthAdjust="spacing" textLength="45.0283" x="162.11" y="112.8857">login()</text><g data-visibility-modifier="PUBLIC_METHOD"><ellipse cx="153.11" cy="125.8359" fill="#84BE84" rx="3" ry="3" style="stroke:#038048;stroke-width:1;"/></g><text fill="#000000" font-family="sans-serif" font-size="14" lengthAdjust="spacing" textLength="55.1934" x="162.11" y="129.1826">logout()</text></g><!--class Visitor--><g class="entity" data-qualified-name="Visitor" data-source-line="9" id="ent0002"><rect fill="#F1F1F1" height="113.1875" rx="2.5" ry="2.5" style="stroke:#181818;stroke-width:0.5;" width="181.2783" x="7" y="197.49"/><ellipse cx="71.1587" cy="213.49" fill="#ADD1B2" rx="11" ry="11" style="stroke:#181818;stroke-width:1;"/><path d="M74.1274,219.1306 Q73.5493,219.4275 72.9087,219.5681 Q72.2681,219.7244 71.5649,219.7244 Q69.0649,219.7244 67.7368,218.0838 Q66.4243,216.4275 66.4243,213.3025 Q66.4243,210.1775 67.7368,208.5213 Q69.0649,206.865 71.5649,206.865 Q72.2681,206.865 72.9087,207.0213 Q73.5649,207.1775 74.1274,207.4744 L74.1274,210.1931 Q73.5024,209.615 72.9087,209.3494 Q72.3149,209.0681 71.6899,209.0681 Q70.3462,209.0681 69.6587,210.1463 Q68.9712,211.2088 68.9712,213.3025 Q68.9712,215.3963 69.6587,216.4744 Q70.3462,217.5369 71.6899,217.5369 Q72.3149,217.5369 72.9087,217.2713 Q73.5024,216.99 74.1274,216.4119 L74.1274,219.1306 Z " fill="#000000"/><text fill="#000000" font-family="sans-serif" font-size="14" lengthAdjust="spacing" textLength="44.4609" x="91.6587" y="218.3367">Visitor</text><line style="stroke:#181818;stroke-width:0.5;" x1="8" x2="187.2783" y1="229.49" y2="229.49"/><g data-visibility-modifier="PRIVATE_FIELD"><rect fill="none" height="6" style="stroke:#C82930;stroke-width:1;" width="6" x="15" y="240.1384"/></g><text fill="#000000" font-family="sans-serif" font-size="14" lengthAdjust="spacing" textLength="129.3359" x="27" y="246.4851">loyaltyCard: string</text><g data-visibility-modifier="PRIVATE_FIELD"><rect fill="none" height="6" style="stroke:#C82930;stroke-width:1;" width="6" x="15" y="256.4353"/></g><text fill="#000000" font-family="sans-serif" font-size="14" lengthAdjust="spacing" textLength="155.2783" x="27" y="262.782">registrationDate: date</text><line style="stroke:#181818;stroke-width:0.5;" x1="8" x2="187.2783" y1="270.0838" y2="270.0838"/><g data-visibility-modifier="PUBLIC_METHOD"><ellipse cx="18" cy="283.7322" fill="#84BE84" rx="3" ry="3" style="stroke:#038048;stroke-width:1;"/></g><text fill="#000000" font-family="sans-serif" font-size="14" lengthAdjust="spacing" textLength="79.3174" x="27" y="287.0789">buyTicket()</text><g data-visibility-modifier="PUBLIC_METHOD"><ellipse cx="18" cy="300.0291" fill="#84BE84" rx="3" ry="3" style="stroke:#038048;stroke-width:1;"/></g><text fill="#000000" font-family="sans-serif" font-size="14" lengthAdjust="spacing" textLength="92.9688" x="27" y="303.3757">viewHistory()</text></g><!--class Admin--><g class="entity" data-qualified-name="Admin" data-source-line="16" id="ent0003"><rect fill="#F1F1F1" height="113.1875" rx="2.5" ry="2.5" style="stroke:#181818;stroke-width:0.5;" width="158.1797" x="223.55" y="197.49"/><ellipse cx="275.9577" cy="213.49" fill="#ADD1B2" rx="11" ry="11" style="stroke:#181818;stroke-width:1;"/><path d="M278.9265,219.1306 Q278.3483,219.4275 277.7077,219.5681 Q277.0671,219.7244 276.364,219.7244 Q273.864,219.7244 272.5358,218.0838 Q271.2233,216.4275 271.2233,213.3025 Q271.2233,210.1775 272.5358,208.5213 Q273.864,206.865 276.364,206.865 Q277.0671,206.865 277.7077,207.0213 Q278.364,207.1775 278.9265,207.4744 L278.9265,210.1931 Q278.3015,209.615 277.7077,209.3494 Q277.114,209.0681 276.489,209.0681 Q275.1452,209.0681 274.4577,210.1463 Q273.7702,211.2088 273.7702,213.3025 Q273.7702,215.3963 274.4577,216.4744 Q275.1452,217.5369 276.489,217.5369 Q277.114,217.5369 277.7077,217.2713 Q278.3015,216.99 278.9265,216.4119 L278.9265,219.1306 Z " fill="#000000"/><text fill="#000000" font-family="sans-serif" font-size="14" lengthAdjust="spacing" textLength="44.8643" x="296.4577" y="218.3367">Admin</text><line style="stroke:#181818;stroke-width:0.5;" x1="224.55" x2="380.7297" y1="229.49" y2="229.49"/><g data-visibility-modifier="PRIVATE_FIELD"><rect fill="none" height="6" style="stroke:#C82930;stroke-width:1;" width="6" x="231.55" y="240.1384"/></g><text fill="#000000" font-family="sans-serif" font-size="14" lengthAdjust="spacing" textLength="76.1797" x="243.55" y="246.4851">role: string</text><g data-visibility-modifier="PRIVATE_FIELD"><rect fill="none" height="6" style="stroke:#C82930;stroke-width:1;" width="6" x="231.55" y="256.4353"/></g><text fill="#000000" font-family="sans-serif" font-size="14" lengthAdjust="spacing" textLength="132.1797" x="243.55" y="262.782">department: string</text><line style="stroke:#181818;stroke-width:0.5;" x1="224.55" x2="380.7297" y1="270.0838" y2="270.0838"/><g data-visibility-modifier="PUBLIC_METHOD"><ellipse cx="234.55" cy="283.7322" fill="#84BE84" rx="3" ry="3" style="stroke:#038048;stroke-width:1;"/></g><text fill="#000000" font-family="sans-serif" font-size="14" lengthAdjust="spacing" textLength="117.7354" x="243.55" y="287.0789">manageTickets()</text><g data-visibility-modifier="PUBLIC_METHOD"><ellipse cx="234.55" cy="300.0291" fill="#84BE84" rx="3" ry="3" style="stroke:#038048;stroke-width:1;"/></g><text fill="#000000" font-family="sans-serif" font-size="14" lengthAdjust="spacing" textLength="106.7363" x="243.55" y="303.3757">viewAnalytics()</text></g><!--class Order--><g class="entity" data-qualified-name="Order" data-source-line="23" id="ent0004"><rect fill="#F1F1F1" height="145.7813" rx="2.5" ry="2.5" style="stroke:#181818;stroke-width:0.5;" width="153.6475" x="20.82" y="371.67"/><ellipse cx="73.3781" cy="387.67" fill="#ADD1B2" rx="11" ry="11" style="stroke:#181818;stroke-width:1;"/><path d="M76.3469,393.3106 Q75.7687,393.6075 75.1281,393.7481 Q74.4875,393.9044 73.7844,393.9044 Q71.2844,393.9044 69.9562,392.2638 Q68.6437,390.6075 68.6437,387.4825 Q68.6437,384.3575 69.9562,382.7013 Q71.2844,381.045 73.7844,381.045 Q74.4875,381.045 75.1281,381.2013 Q75.7844,381.3575 76.3469,381.6544 L76.3469,384.3731 Q75.7219,383.795 75.1281,383.5294 Q74.5344,383.2481 73.9094,383.2481 Q72.5656,383.2481 71.8781,384.3263 Q71.1906,385.3888 71.1906,387.4825 Q71.1906,389.5763 71.8781,390.6544 Q72.5656,391.7169 73.9094,391.7169 Q74.5344,391.7169 75.1281,391.4513 Q75.7219,391.17 76.3469,390.5919 L76.3469,393.3106 Z " fill="#000000"/><text fill="#000000" font-family="sans-serif" font-size="14" lengthAdjust="spacing" textLength="40.0313" x="93.8781" y="392.5167">Order</text><line style="stroke:#181818;stroke-width:0.5;" x1="21.82" x2="173.4675" y1="403.67" y2="403.67"/><g data-visibility-modifier="PRIVATE_FIELD"><rect fill="none" height="6" style="stroke:#C82930;stroke-width:1;" width="6" x="28.82" y="414.3184"/></g><text fill="#000000" font-family="sans-serif" font-size="14" lengthAdjust="spacing" textLength="78.0117" x="40.82" y="420.6651">orderId: int</text><g data-visibility-modifier="PRIVATE_FIELD"><rect fill="none" height="6" style="stroke:#C82930;stroke-width:1;" width="6" x="28.82" y="430.6153"/></g><text fill="#000000" font-family="sans-serif" font-size="14" lengthAdjust="spacing" textLength="111.7744" x="40.82" y="436.962">orderDate: date</text><g data-visibility-modifier="PRIVATE_FIELD"><rect fill="none" height="6" style="stroke:#C82930;stroke-width:1;" width="6" x="28.82" y="446.9122"/></g><text fill="#000000" font-family="sans-serif" font-size="14" lengthAdjust="spacing" textLength="127.6475" x="40.82" y="453.2589">totalAmount: float</text><g data-visibility-modifier="PRIVATE_FIELD"><rect fill="none" height="6" style="stroke:#C82930;stroke-width:1;" width="6" x="28.82" y="463.2091"/></g><text fill="#000000" font-family="sans-serif" font-size="14" lengthAdjust="spacing" textLength="92.374" x="40.82" y="469.5557">status: string</text><line style="stroke:#181818;stroke-width:0.5;" x1="21.82" x2="173.4675" y1="476.8575" y2="476.8575"/><g data-visibility-modifier="PUBLIC_METHOD"><ellipse cx="31.82" cy="490.5059" fill="#84BE84" rx="3" ry="3" style="stroke:#038048;stroke-width:1;"/></g><text fill="#000000" font-family="sans-serif" font-size="14" lengthAdjust="spacing" textLength="109.3066" x="40.82" y="493.8526">calculateTotal()</text><g data-visibility-modifier="PUBLIC_METHOD"><ellipse cx="31.82" cy="506.8028" fill="#84BE84" rx="3" ry="3" style="stroke:#038048;stroke-width:1;"/></g><text fill="#000000" font-family="sans-serif" font-size="14" lengthAdjust="spacing" textLength="126.1914" x="40.82" y="510.1495">confirmPayment()</text></g><!--class Ticket--><g class="entity" data-qualified-name="Ticket" data-source-line="32" id="ent0005"><rect fill="#F1F1F1" height="178.375" rx="2.5" ry="2.5" style="stroke:#181818;stroke-width:0.5;" width="125.8389" x="210.72" y="594.45"/><ellipse cx="248.8906" cy="610.45" fill="#ADD1B2" rx="11" ry="11" style="stroke:#181818;stroke-width:1;"/><path d="M251.8594,616.0906 Q251.2812,616.3875 250.6406,616.5281 Q250,616.6844 249.2969,616.6844 Q246.7969,616.6844 245.4687,615.0438 Q244.1562,613.3875 244.1562,610.2625 Q244.1562,607.1375 245.4687,605.4813 Q246.7969,603.825 249.2969,603.825 Q250,603.825 250.6406,603.9813 Q251.2969,604.1375 251.8594,604.4344 L251.8594,607.1531 Q251.2344,606.575 250.6406,606.3094 Q250.0469,606.0281 249.4219,606.0281 Q248.0781,606.0281 247.3906,607.1063 Q246.7031,608.1688 246.7031,610.2625 Q246.7031,612.3563 247.3906,613.4344 Q248.0781,614.4969 249.4219,614.4969 Q250.0469,614.4969 250.6406,614.2313 Q251.2344,613.95 251.8594,613.3719 L251.8594,616.0906 Z " fill="#000000"/><text fill="#000000" font-family="sans-serif" font-size="14" lengthAdjust="spacing" textLength="42.3486" x="268.0396" y="615.2967">Ticket</text><line style="stroke:#181818;stroke-width:0.5;" x1="211.72" x2="335.5589" y1="626.45" y2="626.45"/><g data-visibility-modifier="PRIVATE_FIELD"><rect fill="none" height="6" style="stroke:#C82930;stroke-width:1;" width="6" x="218.72" y="637.0984"/></g><text fill="#000000" font-family="sans-serif" font-size="14" lengthAdjust="spacing" textLength="40.1953" x="230.72" y="643.4451">id: int</text><g data-visibility-modifier="PRIVATE_FIELD"><rect fill="none" height="6" style="stroke:#C82930;stroke-width:1;" width="6" x="218.72" y="653.3953"/></g><text fill="#000000" font-family="sans-serif" font-size="14" lengthAdjust="spacing" textLength="80.6299" x="230.72" y="659.742">type: string</text><g data-visibility-modifier="PRIVATE_FIELD"><rect fill="none" height="6" style="stroke:#C82930;stroke-width:1;" width="6" x="218.72" y="669.6922"/></g><text fill="#000000" font-family="sans-serif" font-size="14" lengthAdjust="spacing" textLength="75.4619" x="230.72" y="676.0389">price: float</text><g data-visibility-modifier="PRIVATE_FIELD"><rect fill="none" height="6" style="stroke:#C82930;stroke-width:1;" width="6" x="218.72" y="685.9891"/></g><text fill="#000000" font-family="sans-serif" font-size="14" lengthAdjust="spacing" textLength="72.3037" x="230.72" y="692.3357">date: date</text><g data-visibility-modifier="PRIVATE_FIELD"><rect fill="none" height="6" style="stroke:#C82930;stroke-width:1;" width="6" x="218.72" y="702.2859"/></g><text fill="#000000" font-family="sans-serif" font-size="14" lengthAdjust="spacing" textLength="72.4268" x="230.72" y="708.6326">time: time</text><g data-visibility-modifier="PRIVATE_FIELD"><rect fill="none" height="6" style="stroke:#C82930;stroke-width:1;" width="6" x="218.72" y="718.5828"/></g><text fill="#000000" font-family="sans-serif" font-size="14" lengthAdjust="spacing" textLength="99.8389" x="230.72" y="724.9295">qrCode: string</text><line style="stroke:#181818;stroke-width:0.5;" x1="211.72" x2="335.5589" y1="732.2313" y2="732.2313"/><g data-visibility-modifier="PUBLIC_METHOD"><ellipse cx="221.72" cy="745.8797" fill="#84BE84" rx="3" ry="3" style="stroke:#038048;stroke-width:1;"/></g><text fill="#000000" font-family="sans-serif" font-size="14" lengthAdjust="spacing" textLength="95.0947" x="230.72" y="749.2264">generateQR()</text><g data-visibility-modifier="PUBLIC_METHOD"><ellipse cx="221.72" cy="762.1766" fill="#84BE84" rx="3" ry="3" style="stroke:#038048;stroke-width:1;"/></g><text fill="#000000" font-family="sans-serif" font-size="14" lengthAdjust="spacing" textLength="67.1357" x="230.72" y="765.5232">validate()</text></g><!--class Payment--><g class="entity" data-qualified-name="Payment" data-source-line="43" id="ent0006"><rect fill="#F1F1F1" height="145.7813" rx="2.5" ry="2.5" style="stroke:#181818;stroke-width:0.5;" width="152.9502" x="21.16" y="610.75"/><ellipse cx="62.7236" cy="626.75" fill="#ADD1B2" rx="11" ry="11" style="stroke:#181818;stroke-width:1;"/><path d="M65.6924,632.3906 Q65.1142,632.6875 64.4736,632.8281 Q63.833,632.9844 63.1299,632.9844 Q60.6299,632.9844 59.3017,631.3438 Q57.9892,629.6875 57.9892,626.5625 Q57.9892,623.4375 59.3017,621.7813 Q60.6299,620.125 63.1299,620.125 Q63.833,620.125 64.4736,620.2813 Q65.1299,620.4375 65.6924,620.7344 L65.6924,623.4531 Q65.0674,622.875 64.4736,622.6094 Q63.8799,622.3281 63.2549,622.3281 Q61.9111,622.3281 61.2236,623.4063 Q60.5361,624.4688 60.5361,626.5625 Q60.5361,628.6563 61.2236,629.7344 Q61.9111,630.7969 63.2549,630.7969 Q63.8799,630.7969 64.4736,630.5313 Q65.0674,630.25 65.6924,629.6719 L65.6924,632.3906 Z " fill="#000000"/><text fill="#000000" font-family="sans-serif" font-size="14" lengthAdjust="spacing" textLength="61.9199" x="82.6267" y="631.5967">Payment</text><line style="stroke:#181818;stroke-width:0.5;" x1="22.16" x2="173.1102" y1="642.75" y2="642.75"/><g data-visibility-modifier="PRIVATE_FIELD"><rect fill="none" height="6" style="stroke:#C82930;stroke-width:1;" width="6" x="29.16" y="653.3984"/></g><text fill="#000000" font-family="sans-serif" font-size="14" lengthAdjust="spacing" textLength="102.7988" x="41.16" y="659.7451">paymentId: int</text><g data-visibility-modifier="PRIVATE_FIELD"><rect fill="none" height="6" style="stroke:#C82930;stroke-width:1;" width="6" x="29.16" y="669.6953"/></g><text fill="#000000" font-family="sans-serif" font-size="14" lengthAdjust="spacing" textLength="94.6367" x="41.16" y="676.042">amount: float</text><g data-visibility-modifier="PRIVATE_FIELD"><rect fill="none" height="6" style="stroke:#C82930;stroke-width:1;" width="6" x="29.16" y="685.9922"/></g><text fill="#000000" font-family="sans-serif" font-size="14" lengthAdjust="spacing" textLength="103.4209" x="41.16" y="692.3389">method: string</text><g data-visibility-modifier="PRIVATE_FIELD"><rect fill="none" height="6" style="stroke:#C82930;stroke-width:1;" width="6" x="29.16" y="702.2891"/></g><text fill="#000000" font-family="sans-serif" font-size="14" lengthAdjust="spacing" textLength="92.374" x="41.16" y="708.6357">status: string</text><line style="stroke:#181818;stroke-width:0.5;" x1="22.16" x2="173.1102" y1="715.9375" y2="715.9375"/><g data-visibility-modifier="PUBLIC_METHOD"><ellipse cx="32.16" cy="729.5859" fill="#84BE84" rx="3" ry="3" style="stroke:#038048;stroke-width:1;"/></g><text fill="#000000" font-family="sans-serif" font-size="14" lengthAdjust="spacing" textLength="126.9502" x="41.16" y="732.9326">processPayment()</text><g data-visibility-modifier="PUBLIC_METHOD"><ellipse cx="32.16" cy="745.8828" fill="#84BE84" rx="3" ry="3" style="stroke:#038048;stroke-width:1;"/></g><text fill="#000000" font-family="sans-serif" font-size="14" lengthAdjust="spacing" textLength="56.8545" x="41.16" y="749.2295">refund()</text></g><!--class Turnstile--><g class="entity" data-qualified-name="Turnstile" data-source-line="52" id="ent0007"><rect fill="#F1F1F1" height="129.4844" rx="2.5" ry="2.5" style="stroke:#181818;stroke-width:0.5;" width="130.9043" x="209.19" y="379.82"/><ellipse cx="241.1437" cy="395.82" fill="#ADD1B2" rx="11" ry="11" style="stroke:#181818;stroke-width:1;"/><path d="M244.1124,401.4606 Q243.5343,401.7575 242.8937,401.8981 Q242.253,402.0544 241.5499,402.0544 Q239.0499,402.0544 237.7218,400.4138 Q236.4093,398.7575 236.4093,395.6325 Q236.4093,392.5075 237.7218,390.8513 Q239.0499,389.195 241.5499,389.195 Q242.253,389.195 242.8937,389.3513 Q243.5499,389.5075 244.1124,389.8044 L244.1124,392.5231 Q243.4874,391.945 242.8937,391.6794 Q242.2999,391.3981 241.6749,391.3981 Q240.3312,391.3981 239.6437,392.4763 Q238.9562,393.5388 238.9562,395.6325 Q238.9562,397.7263 239.6437,398.8044 Q240.3312,399.8669 241.6749,399.8669 Q242.2999,399.8669 242.8937,399.6013 Q243.4874,399.32 244.1124,398.7419 L244.1124,401.4606 Z " fill="#000000"/><text fill="#000000" font-family="sans-serif" font-size="14" lengthAdjust="spacing" textLength="61.2295" x="258.9111" y="400.6667">Turnstile</text><line style="stroke:#181818;stroke-width:0.5;" x1="210.19" x2="339.0943" y1="411.82" y2="411.82"/><g data-visibility-modifier="PRIVATE_FIELD"><rect fill="none" height="6" style="stroke:#C82930;stroke-width:1;" width="6" x="217.19" y="422.4684"/></g><text fill="#000000" font-family="sans-serif" font-size="14" lengthAdjust="spacing" textLength="40.1953" x="229.19" y="428.8151">id: int</text><g data-visibility-modifier="PRIVATE_FIELD"><rect fill="none" height="6" style="stroke:#C82930;stroke-width:1;" width="6" x="217.19" y="438.7653"/></g><text fill="#000000" font-family="sans-serif" font-size="14" lengthAdjust="spacing" textLength="104.9043" x="229.19" y="445.112">location: string</text><g data-visibility-modifier="PRIVATE_FIELD"><rect fill="none" height="6" style="stroke:#C82930;stroke-width:1;" width="6" x="217.19" y="455.0622"/></g><text fill="#000000" font-family="sans-serif" font-size="14" lengthAdjust="spacing" textLength="92.374" x="229.19" y="461.4089">status: string</text><line style="stroke:#181818;stroke-width:0.5;" x1="210.19" x2="339.0943" y1="468.7106" y2="468.7106"/><g data-visibility-modifier="PUBLIC_METHOD"><ellipse cx="220.19" cy="482.3591" fill="#84BE84" rx="3" ry="3" style="stroke:#038048;stroke-width:1;"/></g><text fill="#000000" font-family="sans-serif" font-size="14" lengthAdjust="spacing" textLength="64.1143" x="229.19" y="485.7057">scanQR()</text><g data-visibility-modifier="PUBLIC_METHOD"><ellipse cx="220.19" cy="498.6559" fill="#84BE84" rx="3" ry="3" style="stroke:#038048;stroke-width:1;"/></g><text fill="#000000" font-family="sans-serif" font-size="14" lengthAdjust="spacing" textLength="79.3926" x="229.19" y="502.0026">openGate()</text></g><!--reverse link User to Visitor--><g class="link" data-entity-1="ent0001" data-entity-2="ent0002" data-link-type="extension" data-source-line="61" id="lnk8"><path codeLine="61" d="M154.5254,152.4958 C143.3554,172.2358 140.03,178.14 129.2,197.28" fill="none" id="User-backto-Visitor" style="stroke:#181818;stroke-width:1;"/><polygon fill="none" points="163.39,136.83,149.3034,149.541,159.7473,155.4507,163.39,136.83" style="stroke:#181818;stroke-width:1;stroke-linejoin:miter;stroke-miterlimit:10;"/></g><!--reverse link User to Admin--><g class="link" data-entity-1="ent0001" data-entity-2="ent0003" data-link-type="extension" data-source-line="62" id="lnk9"><path codeLine="62" d="M245.1705,152.4584 C256.4505,172.1984 259.84,178.14 270.77,197.28" fill="none" id="User-backto-Admin" style="stroke:#181818;stroke-width:1;"/><polygon fill="none" points="236.24,136.83,239.961,155.4352,250.38,149.4815,236.24,136.83" style="stroke:#181818;stroke-width:1;stroke-linejoin:miter;stroke-miterlimit:10;"/></g><!--reverse link Visitor to Order--><g class="link" data-entity-1="ent0002" data-entity-2="ent0004" data-link-type="aggregation" data-source-line="65" id="lnk10"><path codeLine="65" d="M97.64,323.12 C97.64,342 97.64,351.35 97.64,371.3" fill="none" id="Visitor-backto-Order" style="stroke:#181818;stroke-width:1;"/><polygon fill="none" points="97.64,311.12,93.64,317.12,97.64,323.12,101.64,317.12,97.64,311.12" style="stroke:#181818;stroke-width:1;stroke-linejoin:miter;stroke-miterlimit:10;"/><text fill="#000000" font-family="sans-serif" font-size="13" lengthAdjust="spacing" textLength="8.271" x="89.1933" y="330.6566">1</text><text fill="#000000" font-family="sans-serif" font-size="13" lengthAdjust="spacing" textLength="23.0356" x="73.5452" y="360.6757">0..*</text></g><!--reverse link Order to Ticket--><g class="link" data-entity-1="ent0004" data-entity-2="ent0005" data-link-type="composition" data-source-line="68" id="lnk11"><path codeLine="68" d="M158.3134,527.2948 C177.0234,552.4948 191.05,571.39 210.47,597.55" fill="none" id="Order-backto-Ticket" style="stroke:#181818;stroke-width:1;"/><polygon fill="#181818" points="151.16,517.66,151.5251,524.8619,158.3134,527.2948,157.9483,520.0929,151.16,517.66" style="stroke:#181818;stroke-width:1;stroke-linejoin:miter;stroke-miterlimit:10;"/><text fill="#000000" font-family="sans-serif" font-size="13" lengthAdjust="spacing" textLength="8.271" x="147.8924" y="537.4154">1</text><text fill="#000000" font-family="sans-serif" font-size="13" lengthAdjust="spacing" textLength="23.0356" x="179.7716" y="584.9725">1..*</text></g><!--reverse link Order to Payment--><g class="link" data-entity-1="ent0004" data-entity-2="ent0006" data-link-type="aggregation" data-source-line="71" id="lnk12"><path codeLine="71" d="M97.64,529.66 C97.64,559.09 97.64,581.05 97.64,610.48" fill="none" id="Order-backto-Payment" style="stroke:#181818;stroke-width:1;"/><polygon fill="none" points="97.64,517.66,93.64,523.66,97.64,529.66,101.64,523.66,97.64,517.66" style="stroke:#181818;stroke-width:1;stroke-linejoin:miter;stroke-miterlimit:10;"/><text fill="#000000" font-family="sans-serif" font-size="13" lengthAdjust="spacing" textLength="8.271" x="89.2713" y="537.4154">1</text><text fill="#000000" font-family="sans-serif" font-size="13" lengthAdjust="spacing" textLength="8.271" x="89.2601" y="599.6134">1</text></g><!--link Turnstile to Ticket--><g class="link" data-entity-1="ent0007" data-entity-2="ent0005" data-link-type="dependency" data-source-line="74" id="lnk13"><path codeLine="74" d="M274.37,509.72 C274.26,535.64 274.1515,560.99 274.0315,588.96" fill="none" id="Turnstile-to-Ticket" style="stroke:#181818;stroke-width:1;stroke-dasharray:7,7;"/><polygon fill="#181818" points="274.01,593.96,278.0486,584.9772,274.0315,588.96,270.0486,584.9429,274.01,593.96" style="stroke:#181818;stroke-width:1;stroke-linejoin:miter;stroke-miterlimit:10;"/><text fill="#000000" font-family="sans-serif" font-size="13" lengthAdjust="spacing" textLength="68.104" x="274.64" y="560.5169">&#171;validate&#187;</text></g><?plantuml-src bLDTRzCm57tFhx3wGZkKYhrMLQLgIC0J7ngy6ySj5euTR0SK0T8w98G44dj3Gk8_P1lLobYxls3_8wwTf4jW2F7YsDUvvvnxV2_XM6lqM5E5NaS8tKGi6I4cJDWBdD8HqaOnCGy1ccB6En4kvqpq1yrUvWOERwE81DmdJ3CZA-WOxWlCJR67LTB2Y96YSmP7R9WKjx41oWJM0FaqB_OPUKvDJV6IqLTtuMUfYZRFD4cPg5cKvBG3dz0CAvDIOJhAKopmd5RekWK_5PWNXX7T9hYl4jgK8Vt-tjQcEj0H7YCZ3URJLEQUTSObhdxL1fjSTtGGp4dE8M_VfzH2Y1Gpfj87kF2wsqegmRKKrb9XYgnRTwOOeMtov3U9pB-kNyFnXTgJIVUvvrHGU1Rwy57Z3-RCvxS5rHfhHLbrQjk3_t0XfUQPxFR0DSPaIXAgzPK7FgZeB1T9nv1S2MqOfzTumYK9NVKlAasms1OfCohkR8kyWUmtMxg5_McNzhlTs1DRshLTsMKKfcRy9ewRFcz5GaU6x2DxwWuWznHGtjkL-mmIxALxvnRk4E1-8BZTs0jxZFgmA-sntS15QPVk405HYJAEXSbJFYGo7KJDIFLsUqW2KU_MSBZJgneqy7qDQ9UmdW7Rbl4C8CyzWVi0OjPsxJx-DtSr1PvvnpFl1kQg8VzIQfKHJvekQK44yV1jRZp05-0-WSG5-7i1Mi0YzmdrlLqWvnoqhTp18Bfwyk5mqap428t7JNzE9hy0?></g></svg>