<svg xmlns="http://www.w3.org/2000/svg" xmlns:xlink="http://www.w3.org/1999/xlink" contentStyleType="text/css" data-diagram-type="STATE" height="634px" preserveAspectRatio="none" style="width:650px;height:634px;background:#FFFFFF;" version="1.1" viewBox="0 0 650 634" width="650px" zoomAndPan="magnify"><?plantuml 1.2026.5?><defs/><g><!--cluster ??????--><g class="cluster" data-qualified-name="......" data-source-line="3" id="ent0001"><path d="M116.75,97 L178.75,97 A12.5,12.5 0 0 1 191.25,109.5 L191.25,118.2969 L104.25,118.2969 L104.25,109.5 A12.5,12.5 0 0 1 116.75,97" fill="#F1F1F1"/><rect fill="none" height="87" rx="12.5" ry="12.5" style="stroke:#181818;stroke-width:0.5;" width="87" x="104.25" y="97"/><line style="stroke:#181818;stroke-width:0.5;" x1="104.25" x2="191.25" y1="118.2969" y2="118.2969"/><text fill="#000000" font-family="sans-serif" font-size="14" lengthAdjust="spacing" textLength="53.1973" x="121.1514" y="113.9951">&#1057;&#1086;&#1079;&#1076;&#1072;&#1085;</text></g><g class="start_entity" data-qualified-name="........start......." data-source-line="4" id="ent0005"><ellipse cx="157.25" cy="150" fill="#222222" rx="10" ry="10" style="stroke:#222222;stroke-width:1;"/></g><g class="entity" data-qualified-name="......." data-source-line="7" id="ent0002"><path d="M189.08,239 L325.415,239 A12.5,12.5 0 0 1 337.915,251.5 L337.915,265.2969 L176.58,265.2969 L176.58,251.5 A12.5,12.5 0 0 1 189.08,239" fill="#F1F1F1"/><rect fill="none" height="156.2969" rx="12.5" ry="12.5" style="stroke:#181818;stroke-width:0.5;" width="161.335" x="176.58" y="239"/><line style="stroke:#181818;stroke-width:0.5;" x1="176.58" x2="337.915" y1="265.2969" y2="265.2969"/><text fill="#000000" font-family="sans-serif" font-size="14" lengthAdjust="spacing" textLength="61.3047" x="226.5951" y="256.9951">&#1040;&#1082;&#1090;&#1080;&#1074;&#1077;&#1085;</text><g class="start_entity" data-qualified-name=".........start........" data-source-line="8" id="ent0007"><ellipse cx="251.25" cy="286.2969" fill="#222222" rx="10" ry="10" style="stroke:#222222;stroke-width:1;"/></g><g class="entity" data-qualified-name="...................." data-source-line="8" id="ent0008"><rect fill="#F1F1F1" height="50" rx="12.5" ry="12.5" style="stroke:#181818;stroke-width:0.5;" width="125.335" x="188.58" y="332.2969"/><line style="stroke:#181818;stroke-width:0.5;" x1="188.58" x2="313.915" y1="358.5937" y2="358.5937"/><text fill="#000000" font-family="sans-serif" font-size="14" lengthAdjust="spacing" textLength="105.335" x="198.58" y="350.292">&#1044;&#1077;&#1081;&#1089;&#1090;&#1074;&#1080;&#1090;&#1077;&#1083;&#1077;&#1085;</text></g><!--link *start*??????? to ????????????--><g class="link" data-entity-1="ent0007" data-entity-2="ent0008" data-link-type="dependency" data-source-line="8" id="lnk9"><path d="M251.25,296.6069 C251.25,305.6469 251.25,314.7869 251.25,327.0269" fill="none" id="*start*&#1040;&#1082;&#1090;&#1080;&#1074;&#1077;&#1085;-to-&#1044;&#1077;&#1081;&#1089;&#1090;&#1074;&#1080;&#1090;&#1077;&#1083;&#1077;&#1085;" style="stroke:#181818;stroke-width:1;"/><polygon fill="#181818" points="251.25,332.0269,255.25,323.0269,251.25,327.0269,247.25,323.0269,251.25,332.0269" style="stroke:#181818;stroke-width:1;stroke-linejoin:miter;stroke-miterlimit:10;"/></g></g><g class="start_entity" data-qualified-name=".start." data-source-line="1" id="ent0003"><ellipse cx="112.25" cy="16" fill="#222222" rx="10" ry="10" style="stroke:#222222;stroke-width:1;"/></g><g class="entity" data-qualified-name="........." data-source-line="11" id="ent0010"><rect fill="#F1F1F1" height="50" rx="12.5" ry="12.5" style="stroke:#181818;stroke-width:0.5;" width="102.2842" x="29.1" y="487.3"/><line style="stroke:#181818;stroke-width:0.5;" x1="29.1" x2="131.3842" y1="513.5969" y2="513.5969"/><text fill="#000000" font-family="sans-serif" font-size="14" lengthAdjust="spacing" textLength="82.2842" x="39.1" y="505.2951">&#1042;&#1086;&#1079;&#1074;&#1088;&#1072;&#1097;&#1105;&#1085;</text></g><g class="entity" data-qualified-name="..........." data-source-line="13" id="ent0013"><rect fill="#F1F1F1" height="50" rx="12.5" ry="12.5" style="stroke:#181818;stroke-width:0.5;" width="115.0811" x="190.71" y="487.3"/><line style="stroke:#181818;stroke-width:0.5;" x1="190.71" x2="305.7911" y1="513.5969" y2="513.5969"/><text fill="#000000" font-family="sans-serif" font-size="14" lengthAdjust="spacing" textLength="95.0811" x="200.71" y="505.2951">&#1048;&#1089;&#1087;&#1086;&#1083;&#1100;&#1079;&#1086;&#1074;&#1072;&#1085;</text></g><g class="entity" data-qualified-name="........." data-source-line="14" id="ent0015"><rect fill="#F1F1F1" height="50" rx="12.5" ry="12.5" style="stroke:#181818;stroke-width:0.5;" width="99.167" x="387.66" y="487.3"/><line style="stroke:#181818;stroke-width:0.5;" x1="387.66" x2="486.827" y1="513.5969" y2="513.5969"/><text fill="#000000" font-family="sans-serif" font-size="14" lengthAdjust="spacing" textLength="79.167" x="397.66" y="505.2951">&#1055;&#1088;&#1086;&#1089;&#1088;&#1086;&#1095;&#1077;&#1085;</text></g><g class="end_entity" data-qualified-name=".end." data-source-line="16" id="ent0017"><ellipse cx="248.25" cy="609.3" fill="none" rx="11" ry="11" style="stroke:#222222;stroke-width:1;"/><ellipse cx="248.25" cy="609.3" fill="#222222" rx="6" ry="6" style="stroke:#222222;stroke-width:1;"/></g><g class="entity" data-qualified-name="GMN21" data-source-line="20" id="ent0022"><path d="M372.88,297.02 L372.88,313.15 L338.29,317.15 L372.88,321.15 L372.88,337.2856 A0,0 0 0 0 372.88,337.2856 L635.6178,337.2856 A0,0 0 0 0 635.6178,337.2856 L635.6178,307.02 L625.6178,297.02 L372.88,297.02 A0,0 0 0 0 372.88,297.02" fill="#FEFFDD" style="stroke:#181818;stroke-width:0.5;"/><path d="M625.6178,297.02 L625.6178,307.02 L635.6178,307.02 L625.6178,297.02" fill="#FEFFDD" style="stroke:#181818;stroke-width:0.5;"/><text fill="#000000" font-family="sans-serif" font-size="13" lengthAdjust="spacing" textLength="142.0225" x="378.88" y="314.0869">&#1041;&#1080;&#1083;&#1077;&#1090; &#1076;&#1077;&#1081;&#1089;&#1090;&#1074;&#1080;&#1090;&#1077;&#1083;&#1077;&#1085;</text><text fill="#000000" font-family="sans-serif" font-size="13" lengthAdjust="spacing" textLength="241.7378" x="378.88" y="329.2197">&#1076;&#1083;&#1103; &#1074;&#1093;&#1086;&#1076;&#1072; &#1074; &#1091;&#1082;&#1072;&#1079;&#1072;&#1085;&#1085;&#1091;&#1102; &#1076;&#1072;&#1090;&#1091;/&#1074;&#1088;&#1077;&#1084;&#1103;</text></g><!--link *start* to ??????--><g class="link" data-entity-1="ent0003" data-entity-2="ent0001" data-link-type="dependency" data-source-line="1" id="lnk4"><path d="M112.25,26.5 C112.25,33.9475 112.25,45.1487 112.25,57.8052 C112.25,64.1334 112.25,70.8254 112.25,77.5938 C112.25,80.978 112.25,84.3814 112.25,87.7679 C112.25,89.4612 112.25,91.1503 112.25,92.8307 C112.25,93.6708 112.25,94.5089 112.25,95.3442 C112.25,95.7618 112.25,91.1788 112.25,91.595" fill="none" id="*start*-to-&#1057;&#1086;&#1079;&#1076;&#1072;&#1085;" style="stroke:#181818;stroke-width:1;"/><polygon fill="#181818" points="112.25,96.595,116.25,87.595,112.25,91.595,108.25,87.595,112.25,96.595" style="stroke:#181818;stroke-width:1;stroke-linejoin:miter;stroke-miterlimit:10;"/><text fill="#000000" font-family="sans-serif" font-size="13" lengthAdjust="spacing" textLength="156.7681" x="113.25" y="69.0669">&#1054;&#1087;&#1083;&#1072;&#1090;&#1072; &#1087;&#1086;&#1076;&#1090;&#1074;&#1077;&#1088;&#1078;&#1076;&#1077;&#1085;&#1072;</text></g><!--link *start*?????? to ???????--><g class="link" data-entity-1="ent0005" data-entity-2="ent0002" data-link-type="dependency" data-source-line="4" id="lnk6"><path d="M162.07,158.97 C171,173.72 188.4006,202.4427 207.7606,234.4227" fill="none" id="*start*&#1057;&#1086;&#1079;&#1076;&#1072;&#1085;-to-&#1040;&#1082;&#1090;&#1080;&#1074;&#1077;&#1085;" style="stroke:#181818;stroke-width:1;"/><polygon fill="#181818" points="210.35,238.7,209.111,228.9294,207.7606,234.4227,202.2673,233.0724,210.35,238.7" style="stroke:#181818;stroke-width:1;stroke-linejoin:miter;stroke-miterlimit:10;"/></g><!--link ?????? to ?????????--><g class="link" data-entity-1="ent0001" data-entity-2="ent0010" data-link-type="dependency" data-source-line="11" id="lnk11"><path d="M104.1805,156.4526 C104.0086,156.5742 103.8345,156.6977 103.6581,156.8232 C102.9524,157.325 102.2112,157.8572 101.4373,158.4191 C95.2466,162.9137 86.9694,169.3037 78.1563,177.18 C60.53,192.9325 40.76,214.63 31.25,239 C6,303.72 17.46,327.22 31.25,395.3 C37.97,428.51 52.1961,459.6029 64.1961,482.4629" fill="none" id="&#1057;&#1086;&#1079;&#1076;&#1072;&#1085;-to-&#1042;&#1086;&#1079;&#1074;&#1088;&#1072;&#1097;&#1105;&#1085;" style="stroke:#181818;stroke-width:1;"/><polygon fill="#181818" points="66.52,486.89,65.8786,477.0621,64.1961,482.4629,58.7952,480.7804,66.52,486.89" style="stroke:#181818;stroke-width:1;stroke-linejoin:miter;stroke-miterlimit:10;"/><text fill="#000000" font-family="sans-serif" font-size="13" lengthAdjust="spacing" textLength="126.8643" x="32.25" y="314.2169">&#1047;&#1072;&#1087;&#1088;&#1086;&#1089; &#1085;&#1072; &#1074;&#1086;&#1079;&#1074;&#1088;&#1072;&#1090;</text><text fill="#000000" font-family="sans-serif" font-size="13" lengthAdjust="spacing" textLength="117.1523" x="37.106" y="329.3497">(&#1076;&#1086; &#1076;&#1072;&#1090;&#1099; &#1074;&#1080;&#1079;&#1080;&#1090;&#1072;)</text></g><!--link ??????? to ?????????--><g class="link" data-entity-1="ent0002" data-entity-2="ent0010" data-link-type="dependency" data-source-line="12" id="lnk12"><path d="M176.23,376.04 C142.45,400.31 110.64,423.41 109.25,425.3 C95.79,443.57 89.362,463.6141 85.382,481.9241" fill="none" id="&#1040;&#1082;&#1090;&#1080;&#1074;&#1077;&#1085;-to-&#1042;&#1086;&#1079;&#1074;&#1088;&#1072;&#1097;&#1105;&#1085;" style="stroke:#181818;stroke-width:1;"/><polygon fill="#181818" points="84.32,486.81,90.1404,478.865,85.382,481.9241,82.3229,477.1657,84.32,486.81" style="stroke:#181818;stroke-width:1;stroke-linejoin:miter;stroke-miterlimit:10;"/><text fill="#000000" font-family="sans-serif" font-size="13" lengthAdjust="spacing" textLength="126.8643" x="110.25" y="438.3669">&#1047;&#1072;&#1087;&#1088;&#1086;&#1089; &#1085;&#1072; &#1074;&#1086;&#1079;&#1074;&#1088;&#1072;&#1090;</text><text fill="#000000" font-family="sans-serif" font-size="13" lengthAdjust="spacing" textLength="117.1523" x="115.106" y="453.4997">(&#1076;&#1086; &#1076;&#1072;&#1090;&#1099; &#1074;&#1080;&#1079;&#1080;&#1090;&#1072;)</text></g><!--link ??????? to ???????????--><g class="link" data-entity-1="ent0002" data-entity-2="ent0013" data-link-type="dependency" data-source-line="13" id="lnk14"><path d="M247.54,395.61 C246.59,405.59 245.78,415.67 245.25,425.3 C244.45,439.5 244.85,443.08 245.25,457.3 C245.51,466.97 245.7532,472.6088 246.3032,481.8588" fill="none" id="&#1040;&#1082;&#1090;&#1080;&#1074;&#1077;&#1085;-to-&#1048;&#1089;&#1087;&#1086;&#1083;&#1100;&#1079;&#1086;&#1074;&#1072;&#1085;" style="stroke:#181818;stroke-width:1;"/><polygon fill="#181818" points="246.6,486.85,250.0588,477.6284,246.3032,481.8588,242.0729,478.1033,246.6,486.85" style="stroke:#181818;stroke-width:1;stroke-linejoin:miter;stroke-miterlimit:10;"/><text fill="#000000" font-family="sans-serif" font-size="13" lengthAdjust="spacing" textLength="195.2412" x="246.25" y="438.3669">&#1057;&#1082;&#1072;&#1085;&#1080;&#1088;&#1086;&#1074;&#1072;&#1085;&#1080;&#1077; &#1085;&#1072; &#1090;&#1091;&#1088;&#1085;&#1080;&#1082;&#1077;&#1090;&#1077;</text><text fill="#000000" font-family="sans-serif" font-size="13" lengthAdjust="spacing" textLength="77.8286" x="304.9563" y="453.4997">(&#1091;&#1089;&#1087;&#1077;&#1096;&#1085;&#1086;&#1077;)</text></g><!--link ??????? to ?????????--><g class="link" data-entity-1="ent0002" data-entity-2="ent0015" data-link-type="dependency" data-source-line="14" id="lnk16"><path d="M338.14,385.19 C343.79,388.82 349.52,392.23 355.25,395.3 C392.77,415.44 421.29,390.79 446.25,425.3 C459.09,443.06 455.9943,463.8046 449.5543,482.4246" fill="none" id="&#1040;&#1082;&#1090;&#1080;&#1074;&#1077;&#1085;-to-&#1055;&#1088;&#1086;&#1089;&#1088;&#1086;&#1095;&#1077;&#1085;" style="stroke:#181818;stroke-width:1;"/><polygon fill="#181818" points="447.92,487.15,454.6421,479.9518,449.5543,482.4246,447.0815,477.3369,447.92,487.15" style="stroke:#181818;stroke-width:1;stroke-linejoin:miter;stroke-miterlimit:10;"/><text fill="#000000" font-family="sans-serif" font-size="13" lengthAdjust="spacing" textLength="141.813" x="455.25" y="438.3669">&#1044;&#1072;&#1090;&#1072; &#1074;&#1080;&#1079;&#1080;&#1090;&#1072; &#1087;&#1088;&#1086;&#1096;&#1083;&#1072;</text><text fill="#000000" font-family="sans-serif" font-size="13" lengthAdjust="spacing" textLength="133.7197" x="459.2966" y="453.4997">(&#1073;&#1077;&#1079; &#1089;&#1082;&#1072;&#1085;&#1080;&#1088;&#1086;&#1074;&#1072;&#1085;&#1080;&#1103;)</text></g><!--link ????????? to *end*--><g class="link" data-entity-1="ent0010" data-entity-2="ent0017" data-link-type="dependency" data-source-line="16" id="lnk18"><path d="M123.51,537.76 C162.59,559.87 212.8478,588.2786 234.5078,600.5286" fill="none" id="&#1042;&#1086;&#1079;&#1074;&#1088;&#1072;&#1097;&#1105;&#1085;-to-*end*" style="stroke:#181818;stroke-width:1;"/><polygon fill="#181818" points="238.86,602.99,232.9952,595.0777,234.5078,600.5286,229.057,602.0412,238.86,602.99" style="stroke:#181818;stroke-width:1;stroke-linejoin:miter;stroke-miterlimit:10;"/></g><!--link ??????????? to *end*--><g class="link" data-entity-1="ent0013" data-entity-2="ent0017" data-link-type="dependency" data-source-line="17" id="lnk19"><path d="M248.25,537.76 C248.25,557.34 248.25,578.79 248.25,593.1" fill="none" id="&#1048;&#1089;&#1087;&#1086;&#1083;&#1100;&#1079;&#1086;&#1074;&#1072;&#1085;-to-*end*" style="stroke:#181818;stroke-width:1;"/><polygon fill="#181818" points="248.25,598.1,252.25,589.1,248.25,593.1,244.25,589.1,248.25,598.1" style="stroke:#181818;stroke-width:1;stroke-linejoin:miter;stroke-miterlimit:10;"/></g><!--link ????????? to *end*--><g class="link" data-entity-1="ent0015" data-entity-2="ent0017" data-link-type="dependency" data-source-line="18" id="lnk20"><path d="M388.57,537.76 C343.95,560.2 285.8076,589.4249 262.2076,601.2849" fill="none" id="&#1055;&#1088;&#1086;&#1089;&#1088;&#1086;&#1095;&#1077;&#1085;-to-*end*" style="stroke:#181818;stroke-width:1;"/><polygon fill="#181818" points="257.74,603.53,267.5778,603.0628,262.2076,601.2849,263.9855,595.9147,257.74,603.53" style="stroke:#181818;stroke-width:1;stroke-linejoin:miter;stroke-miterlimit:10;"/></g><?plantuml-src lL8xJiDG4EpVAROaI15z2YwIK53mQnm9t26as14Y28G9Ge8Ab1kOA0-763jNsBrHPf_jW1FJqbZFiv-PsTtkxW6rs_l44yuvuHd7d567-8sNd78i8SU4PyupFATiPS2VoBASSMpCXN_e7zLhBmrHjshwo0kKpRMGCtErBgZXzP9dG5yIEBOvlXOook8QZqj-Si0KecAvbN4X_GNn9Q1S0bAPX4u_QM7Fsq6BdBIFX7AduJd2IXQtp8Qs_wHvbS2DEfLx9EO8bSkOy4AVg1rKC2fjGOlcG-2ABB0VJ0pKWBINbH42ETjcmlT2lllUEBYZ2oYt_ailbKv7UXFgx0FP2O6ZGPX4BUngUsPAYJMRFtokmzkggf3n-hYUyxEJKv_wnvjd1ErZ_AGw178tsd17FG-HL2BOasizQ-UKPEYS9Cv1XkazL8iRxZaJbhybMW40?></g></svg>